<?xml version="1.0" encoding="UTF-8" standalone="no"?>
<!-- Created with Inkscape (http://www.inkscape.org/) -->

<svg
   xmlns:dc="http://purl.org/dc/elements/1.1/"
   xmlns:cc="http://creativecommons.org/ns#"
   xmlns:rdf="http://www.w3.org/1999/02/22-rdf-syntax-ns#"
   xmlns:svg="http://www.w3.org/2000/svg"
   xmlns="http://www.w3.org/2000/svg"
   xmlns:sodipodi="http://sodipodi.sourceforge.net/DTD/sodipodi-0.dtd"
   xmlns:inkscape="http://www.inkscape.org/namespaces/inkscape"
   width="120"
   height="60"
   id="svg3829"
   version="1.1"
   inkscape:version="0.48.4 r9939"
   sodipodi:docname="girl.svg"
   inkscape:export-filename="/home/lastleaf/programs/ludum-dare-33/src/svg/girl.png"
   inkscape:export-xdpi="90"
   inkscape:export-ydpi="90">
  <defs
     id="defs3831" />
  <sodipodi:namedview
     id="base"
     pagecolor="#000000"
     bordercolor="#666666"
     borderopacity="1.0"
     inkscape:pageopacity="0"
     inkscape:pageshadow="2"
     inkscape:zoom="5.9794907"
     inkscape:cx="54.412187"
     inkscape:cy="21.351552"
     inkscape:document-units="px"
     inkscape:current-layer="layer1"
     showgrid="false"
     borderlayer="true" />
  <metadata
     id="metadata3834">
    <rdf:RDF>
      <cc:Work
         rdf:about="">
        <dc:format>image/svg+xml</dc:format>
        <dc:type
           rdf:resource="http://purl.org/dc/dcmitype/StillImage" />
        <dc:title></dc:title>
      </cc:Work>
    </rdf:RDF>
  </metadata>
  <g
     inkscape:label="Layer 1"
     inkscape:groupmode="layer"
     id="layer1"
     transform="translate(0,-992.36217)">
    <rect
       style="fill:#ff7f7f;fill-opacity:1;stroke:#ffc1c5;stroke-width:1;stroke-linecap:round;stroke-linejoin:round;stroke-miterlimit:4;stroke-opacity:1;stroke-dasharray:none"
       id="rect3839"
       width="2.4790514"
       height="15.220133"
       x="13.760474"
       y="1036.7314" />
    <path
       style="fill:#ff7f7f;fill-opacity:1;stroke:#ffc1c5;stroke-width:1;stroke-linecap:butt;stroke-linejoin:miter;stroke-miterlimit:4;stroke-opacity:1;stroke-dasharray:none"
       d="m 15.03726,1001.5301 c -3.380715,19.9522 -5.7973616,30.2443 -11.1525211,43.175 l 22.2305221,0 c -5.210316,-12.7583 -7.526964,-23.1033 -11.078001,-43.175 z"
       id="path3841"
       inkscape:connector-curvature="0"
       sodipodi:nodetypes="cccc"
       inkscape:transform-center-y="15.635801" />
    <path
       sodipodi:type="arc"
       style="fill:#ff7f7f;fill-opacity:1;stroke:#ffc1c5;stroke-width:1;stroke-linecap:round;stroke-linejoin:round;stroke-miterlimit:4;stroke-opacity:1;stroke-dasharray:none"
       id="path3837"
       sodipodi:cx="15.892858"
       sodipodi:cy="14.285714"
       sodipodi:rx="7.1428571"
       sodipodi:ry="7.1428571"
       d="m 23.035715,14.285714 c 0,3.944891 -3.197966,7.142857 -7.142857,7.142857 -3.944891,0 -7.1428575,-3.197966 -7.1428575,-7.142857 0,-3.944891 3.1979665,-7.1428569 7.1428575,-7.1428569 3.944891,0 7.142857,3.1979659 7.142857,7.1428569 z"
       transform="translate(-0.89285755,986.15369)" />
    <path
       sodipodi:type="arc"
       style="fill:#ff7f7f;fill-opacity:1;stroke:#ffc1c5;stroke-width:0.71386653;stroke-linecap:round;stroke-linejoin:round;stroke-miterlimit:4;stroke-opacity:1;stroke-dasharray:none"
       id="path4353"
       sodipodi:cx="19.065168"
       sodipodi:cy="10.295918"
       sodipodi:rx="0.33447665"
       sodipodi:ry="0.33447665"
       d="m 19.399645,10.295918 c 0,0.184727 -0.14975,0.334477 -0.334477,0.334477 -0.184726,0 -0.334476,-0.14975 -0.334476,-0.334477 0,-0.184726 0.14975,-0.3344762 0.334476,-0.3344762 0.184727,0 0.334477,0.1497502 0.334477,0.3344762 z"
       transform="matrix(1.4008221,0,0,1.4008221,-7.4475484,984.96104)" />
    <rect
       style="fill:#ff7f7f;fill-opacity:1;stroke:#ffc1c5;stroke-width:1;stroke-linecap:round;stroke-linejoin:round;stroke-miterlimit:4;stroke-opacity:1;stroke-dasharray:none"
       id="rect3839-6"
       width="2.4790514"
       height="15.220133"
       x="43.760475"
       y="1036.7314" />
    <path
       style="fill:#ff7f7f;fill-opacity:1;stroke:#ffc1c5;stroke-width:1;stroke-linecap:butt;stroke-linejoin:miter;stroke-miterlimit:4;stroke-opacity:1;stroke-dasharray:none"
       d="m 45.48146,1001.5495 c -4.860746,19.6441 -8.038972,29.7271 -14.344486,42.222 l 22.168491,1.6596 c -4.243349,-13.1117 -5.781262,-23.6008 -7.824005,-43.8816 z"
       id="path3841-7"
       inkscape:connector-curvature="0"
       sodipodi:nodetypes="cccc"
       inkscape:transform-center-y="16.008501"
       inkscape:transform-center-x="2.7787805" />
    <path
       sodipodi:type="arc"
       style="fill:#ff7f7f;fill-opacity:1;stroke:#ffc1c5;stroke-width:1;stroke-linecap:round;stroke-linejoin:round;stroke-miterlimit:4;stroke-opacity:1;stroke-dasharray:none"
       id="path3837-9"
       sodipodi:cx="15.892858"
       sodipodi:cy="14.285714"
       sodipodi:rx="7.1428571"
       sodipodi:ry="7.1428571"
       d="m 23.035715,14.285714 c 0,3.944891 -3.197966,7.142857 -7.142857,7.142857 -3.944891,0 -7.1428575,-3.197966 -7.1428575,-7.142857 0,-3.944891 3.1979665,-7.1428569 7.1428575,-7.1428569 3.944891,0 7.142857,3.1979659 7.142857,7.1428569 z"
       transform="translate(29.107142,986.15369)" />
    <path
       sodipodi:type="arc"
       style="fill:#ff7f7f;fill-opacity:1;stroke:#ffc1c5;stroke-width:0.71386653;stroke-linecap:round;stroke-linejoin:round;stroke-miterlimit:4;stroke-opacity:1;stroke-dasharray:none"
       id="path4353-7"
       sodipodi:cx="19.065168"
       sodipodi:cy="10.295918"
       sodipodi:rx="0.33447665"
       sodipodi:ry="0.33447665"
       d="m 19.399645,10.295918 c 0,0.184727 -0.14975,0.334477 -0.334477,0.334477 -0.184726,0 -0.334476,-0.14975 -0.334476,-0.334477 0,-0.184726 0.14975,-0.3344762 0.334476,-0.3344762 0.184727,0 0.334477,0.1497502 0.334477,0.3344762 z"
       transform="matrix(1.4008221,0,0,1.4008221,22.552451,984.96104)" />
    <rect
       style="fill:#ff7f7f;fill-opacity:1;stroke:#ffc1c5;stroke-width:1;stroke-linecap:round;stroke-linejoin:round;stroke-miterlimit:4;stroke-opacity:1;stroke-dasharray:none"
       id="rect3839-0"
       width="2.4790514"
       height="15.220133"
       x="-106.23952"
       y="1036.7314"
       transform="scale(-1,1)" />
    <path
       style="fill:#ff7f7f;fill-opacity:1;stroke:#ffc1c5;stroke-width:1;stroke-linecap:butt;stroke-linejoin:miter;stroke-miterlimit:4;stroke-opacity:1;stroke-dasharray:none"
       d="m 104.96274,1001.5301 c 3.38072,19.9522 5.79736,30.2443 11.15252,43.175 l -22.230521,0 c 5.210316,-12.7583 7.526961,-23.1033 11.078001,-43.175 z"
       id="path3841-76"
       inkscape:connector-curvature="0"
       sodipodi:nodetypes="cccc"
       inkscape:transform-center-y="15.635801" />
    <path
       sodipodi:type="arc"
       style="fill:#ff7f7f;fill-opacity:1;stroke:#ffc1c5;stroke-width:1;stroke-linecap:round;stroke-linejoin:round;stroke-miterlimit:4;stroke-opacity:1;stroke-dasharray:none"
       id="path3837-1"
       sodipodi:cx="15.892858"
       sodipodi:cy="14.285714"
       sodipodi:rx="7.1428571"
       sodipodi:ry="7.1428571"
       d="m 23.035715,14.285714 c 0,3.944891 -3.197966,7.142857 -7.142857,7.142857 -3.944891,0 -7.1428575,-3.197966 -7.1428575,-7.142857 0,-3.944891 3.1979665,-7.1428569 7.1428575,-7.1428569 3.944891,0 7.142857,3.1979659 7.142857,7.1428569 z"
       transform="matrix(-1,0,0,1,120.89285,986.15369)" />
    <path
       sodipodi:type="arc"
       style="fill:#ff7f7f;fill-opacity:1;stroke:#ffc1c5;stroke-width:0.71386653;stroke-linecap:round;stroke-linejoin:round;stroke-miterlimit:4;stroke-opacity:1;stroke-dasharray:none"
       id="path4353-6"
       sodipodi:cx="19.065168"
       sodipodi:cy="10.295918"
       sodipodi:rx="0.33447665"
       sodipodi:ry="0.33447665"
       d="m 19.399645,10.295918 c 0,0.184727 -0.14975,0.334477 -0.334477,0.334477 -0.184726,0 -0.334476,-0.14975 -0.334476,-0.334477 0,-0.184726 0.14975,-0.3344762 0.334476,-0.3344762 0.184727,0 0.334477,0.1497502 0.334477,0.3344762 z"
       transform="matrix(-1.4008221,0,0,1.4008221,127.44755,984.96104)" />
    <rect
       style="fill:#ff7f7f;fill-opacity:1;stroke:#ffc1c5;stroke-width:1;stroke-linecap:round;stroke-linejoin:round;stroke-miterlimit:4;stroke-opacity:1;stroke-dasharray:none"
       id="rect3839-6-6"
       width="2.4790514"
       height="15.220133"
       x="-76.239525"
       y="1036.7314"
       transform="scale(-1,1)" />
    <path
       style="fill:#ff7f7f;fill-opacity:1;stroke:#ffc1c5;stroke-width:1;stroke-linecap:butt;stroke-linejoin:miter;stroke-miterlimit:4;stroke-opacity:1;stroke-dasharray:none"
       d="m 74.51854,1001.5495 c 4.860746,19.6441 8.038972,29.7271 14.344486,42.222 l -22.168491,1.6596 c 4.243349,-13.1117 5.781262,-23.6008 7.824005,-43.8816 z"
       id="path3841-7-2"
       inkscape:connector-curvature="0"
       sodipodi:nodetypes="cccc"
       inkscape:transform-center-y="16.008501"
       inkscape:transform-center-x="2.7787805" />
    <path
       sodipodi:type="arc"
       style="fill:#ff7f7f;fill-opacity:1;stroke:#ffc1c5;stroke-width:1;stroke-linecap:round;stroke-linejoin:round;stroke-miterlimit:4;stroke-opacity:1;stroke-dasharray:none"
       id="path3837-9-5"
       sodipodi:cx="15.892858"
       sodipodi:cy="14.285714"
       sodipodi:rx="7.1428571"
       sodipodi:ry="7.1428571"
       d="m 23.035715,14.285714 c 0,3.944891 -3.197966,7.142857 -7.142857,7.142857 -3.944891,0 -7.1428575,-3.197966 -7.1428575,-7.142857 0,-3.944891 3.1979665,-7.1428569 7.1428575,-7.1428569 3.944891,0 7.142857,3.1979659 7.142857,7.1428569 z"
       transform="matrix(-1,0,0,1,90.892858,986.15369)" />
    <path
       sodipodi:type="arc"
       style="fill:#ff7f7f;fill-opacity:1;stroke:#ffc1c5;stroke-width:0.71386653;stroke-linecap:round;stroke-linejoin:round;stroke-miterlimit:4;stroke-opacity:1;stroke-dasharray:none"
       id="path4353-7-1"
       sodipodi:cx="19.065168"
       sodipodi:cy="10.295918"
       sodipodi:rx="0.33447665"
       sodipodi:ry="0.33447665"
       d="m 19.399645,10.295918 c 0,0.184727 -0.14975,0.334477 -0.334477,0.334477 -0.184726,0 -0.334476,-0.14975 -0.334476,-0.334477 0,-0.184726 0.14975,-0.3344762 0.334476,-0.3344762 0.184727,0 0.334477,0.1497502 0.334477,0.3344762 z"
       transform="matrix(-1.4008221,0,0,1.4008221,97.447549,984.96104)" />
  </g>
</svg>
